<mxfile host="app.diagrams.net" modified="2021-03-18T11:05:27.956Z" agent="5.0 (Macintosh; Intel Mac OS X 11_0_1) AppleWebKit/537.36 (KHTML, like Gecko) Chrome/89.0.4389.82 Safari/537.36" etag="7iMa23zCbj1qMCS-3LWr" version="14.4.3" type="github">
  <diagram id="_tyC90Rl83AVl6WPHt1U" name="Page-1">
    <mxGraphModel dx="1186" dy="738" grid="1" gridSize="10" guides="1" tooltips="1" connect="1" arrows="1" fold="1" page="1" pageScale="1" pageWidth="827" pageHeight="1169" math="0" shadow="0">
      <root>
        <mxCell id="0" />
        <mxCell id="1" parent="0" />
        <mxCell id="BTEkLLepeOsrKCsOLm_2-7" style="edgeStyle=orthogonalEdgeStyle;rounded=0;orthogonalLoop=1;jettySize=auto;html=1;" edge="1" parent="1" source="BTEkLLepeOsrKCsOLm_2-1" target="BTEkLLepeOsrKCsOLm_2-2">
          <mxGeometry relative="1" as="geometry">
            <Array as="points">
              <mxPoint x="380" y="270" />
              <mxPoint x="380" y="90" />
            </Array>
          </mxGeometry>
        </mxCell>
        <mxCell id="BTEkLLepeOsrKCsOLm_2-14" style="edgeStyle=orthogonalEdgeStyle;rounded=0;orthogonalLoop=1;jettySize=auto;html=1;" edge="1" parent="1" source="BTEkLLepeOsrKCsOLm_2-1" target="BTEkLLepeOsrKCsOLm_2-12">
          <mxGeometry relative="1" as="geometry" />
        </mxCell>
        <mxCell id="BTEkLLepeOsrKCsOLm_2-1" value="dartboot_core" style="ellipse;whiteSpace=wrap;html=1;" vertex="1" parent="1">
          <mxGeometry x="230" y="230" width="120" height="80" as="geometry" />
        </mxCell>
        <mxCell id="BTEkLLepeOsrKCsOLm_2-2" value="dartboot_annotation" style="ellipse;whiteSpace=wrap;html=1;" vertex="1" parent="1">
          <mxGeometry x="390" y="50" width="120" height="80" as="geometry" />
        </mxCell>
        <mxCell id="BTEkLLepeOsrKCsOLm_2-8" style="edgeStyle=orthogonalEdgeStyle;rounded=0;orthogonalLoop=1;jettySize=auto;html=1;" edge="1" parent="1" source="BTEkLLepeOsrKCsOLm_2-3" target="BTEkLLepeOsrKCsOLm_2-2">
          <mxGeometry relative="1" as="geometry" />
        </mxCell>
        <mxCell id="BTEkLLepeOsrKCsOLm_2-15" style="edgeStyle=orthogonalEdgeStyle;rounded=0;orthogonalLoop=1;jettySize=auto;html=1;" edge="1" parent="1" source="BTEkLLepeOsrKCsOLm_2-3" target="BTEkLLepeOsrKCsOLm_2-12">
          <mxGeometry relative="1" as="geometry">
            <Array as="points">
              <mxPoint x="510" y="170" />
              <mxPoint x="280" y="170" />
            </Array>
          </mxGeometry>
        </mxCell>
        <mxCell id="BTEkLLepeOsrKCsOLm_2-3" value="dartboot_db" style="ellipse;whiteSpace=wrap;html=1;" vertex="1" parent="1">
          <mxGeometry x="450" y="230" width="120" height="80" as="geometry" />
        </mxCell>
        <mxCell id="BTEkLLepeOsrKCsOLm_2-9" style="edgeStyle=orthogonalEdgeStyle;rounded=0;orthogonalLoop=1;jettySize=auto;html=1;" edge="1" parent="1" source="BTEkLLepeOsrKCsOLm_2-4" target="BTEkLLepeOsrKCsOLm_2-3">
          <mxGeometry relative="1" as="geometry">
            <mxPoint x="410" y="210" as="targetPoint" />
            <Array as="points">
              <mxPoint x="190" y="370" />
              <mxPoint x="510" y="370" />
            </Array>
          </mxGeometry>
        </mxCell>
        <mxCell id="BTEkLLepeOsrKCsOLm_2-4" value="dartboot_mysql" style="ellipse;whiteSpace=wrap;html=1;" vertex="1" parent="1">
          <mxGeometry x="130" y="420" width="120" height="80" as="geometry" />
        </mxCell>
        <mxCell id="BTEkLLepeOsrKCsOLm_2-10" style="edgeStyle=orthogonalEdgeStyle;rounded=0;orthogonalLoop=1;jettySize=auto;html=1;" edge="1" parent="1" source="BTEkLLepeOsrKCsOLm_2-5" target="BTEkLLepeOsrKCsOLm_2-3">
          <mxGeometry relative="1" as="geometry" />
        </mxCell>
        <mxCell id="BTEkLLepeOsrKCsOLm_2-5" value="dartboot_clickhouse" style="ellipse;whiteSpace=wrap;html=1;" vertex="1" parent="1">
          <mxGeometry x="340" y="420" width="120" height="80" as="geometry" />
        </mxCell>
        <mxCell id="BTEkLLepeOsrKCsOLm_2-11" style="edgeStyle=orthogonalEdgeStyle;rounded=0;orthogonalLoop=1;jettySize=auto;html=1;" edge="1" parent="1" source="BTEkLLepeOsrKCsOLm_2-6" target="BTEkLLepeOsrKCsOLm_2-3">
          <mxGeometry relative="1" as="geometry" />
        </mxCell>
        <mxCell id="BTEkLLepeOsrKCsOLm_2-6" value="dartboot_mongo" style="ellipse;whiteSpace=wrap;html=1;" vertex="1" parent="1">
          <mxGeometry x="510" y="420" width="120" height="80" as="geometry" />
        </mxCell>
        <mxCell id="BTEkLLepeOsrKCsOLm_2-12" value="dartboot_util" style="ellipse;whiteSpace=wrap;html=1;" vertex="1" parent="1">
          <mxGeometry x="230" y="60" width="120" height="80" as="geometry" />
        </mxCell>
      </root>
    </mxGraphModel>
  </diagram>
</mxfile>
